<?xml version="1.0" standalone="no"?>
<!DOCTYPE svg PUBLIC "-//W3C//DTD SVG 1.1//EN" "http://www.w3.org/Graphics/SVG/1.1/DTD/svg11.dtd">
<svg xmlns="http://www.w3.org/2000/svg">
<defs >
<font id="Inconsolata" horiz-adv-x="505" ><font-face
    font-family="Inconsolata Medium"
    units-per-em="1000"
    panose-1="0 0 5 9 0 0 0 0 0 0"
    ascent="859"
    descent="-190"
    alphabetic="0" />
<glyph unicode=" " horiz-adv-x="500" />
<glyph unicode="!" horiz-adv-x="500" d="M210 199L184 590Q184 616 191 633T211 660T241 669Q258 669 270 660T290 632T298 582L270 199H210ZM239 -11Q212 -11 193 7T173 53Q173 79 192 98T239 118Q266 118 286 99T306 53Q306 28 286 9T239 -11Z" />
<glyph unicode="&quot;" horiz-adv-x="500" d="M386 665H474Q474 605 473 569T469 509T463 462T457 407H403Q400 439 397 461T391 508T387 568T386 665ZM282 665H370Q370 605 369 569T365 509T359 462T353 407H299Q296 439 293 461T287 508T283 568T282 665Z" />
<glyph unicode="#" horiz-adv-x="500" d="M266 9L287 186H185L165 14L95 13L116 184H22L26 239H123L142 399H36L39 456H148L167 624L239 626L218 458H319L338 622L412 623L392 460H480L473 402H385L365 244H460L455 189H360L338 14L266 9ZM192 241H293L313 400H211L192
241Z" />
<glyph unicode="$" horiz-adv-x="500" d="M234 -46V13Q199 16 167 25T108 52T57 92L103 161Q109 158 109 150T114 137Q130 121 148 109T188 90T233 80V287Q181 305 146 327T93 379T75 446Q75 484 96 514T153 565T234 591V651H301Q303 650 303 649T303 647Q303
644 300 639T296 626V592Q327 589 354 579T404 553T446 515L400 457Q393 458 392 466T386 478Q378 487 369 495T348 508T324 517T297 524V343Q355 324 391 303T446 253T464 181Q464 144 444 108T386 47T296 14V-46H234ZM297 82Q326 87 346 101T378 136T389 177Q389
199 380 215T350 244T297 267V82ZM233 366V525Q207 522 189 512T160 486T150 453Q150 435 159 420T187 391T233 366Z" />
<glyph unicode="%" horiz-adv-x="500" d="M42 0L389 623H455L105 0H42ZM370 -10Q339 -10 313 7T271 54T255 121Q255 158 271 187T313 234T370 252Q401 252 427 234T468 187T483 120Q483 84 468 54T427 7T370 -10ZM371 46Q384 46 395 54T412 79T419 120Q419 141
413 158T396 185T369 195Q356 195 345 187T327 163T320 121Q320 96 327 79T346 54T371 46ZM139 371Q109 371 83 388T41 435T25 503Q25 540 41 569T83 616T139 634Q171 634 196 617T238 569T254 502Q254 463 239 434T198 388T139 371ZM139 429Q152 429 162 436T179
460T186 503Q186 522 182 536T172 559T156 572T138 576Q126 576 116 569T98 545T91 503Q91 477 98 461T115 437T139 429Z" />
<glyph unicode="&amp;" horiz-adv-x="500" d="M411 -13L358 71Q338 46 312 28T255 0T193 -10Q146 -10 110 10T54 66T34 143Q34 175 42 203T66 257T105 305T156 343Q121 385 105 423T88 497Q88 525 99 549T129 592T174 620T229 630Q270 630 300 611T348 561T366
497Q366 471 358 446T336 398T303 358T261 327L366 181Q377 194 384 206T397 229T404 252T408 276Q408 279 409 282T413 288L483 240Q472 219 460 200T436 162T409 124L475 39L411 -13ZM201 62Q223 62 242 69T280 91T315 124L197 287Q178 276 164 261T140 228T125
192T119 154Q119 134 125 118T143 89T168 69T201 62ZM221 379Q238 388 251 400T273 427T286 459T291 491Q291 521 274 541T230 562Q212 562 198 554T175 530T166 495Q166 480 171 462T190 424T221 379Z" />
<glyph unicode="&apos;" horiz-adv-x="500" d="M206 665H294Q294 605 293 569T289 509T283 462T277 407H223Q220 439 217 461T211 508T207 568T206 665Z" />
<glyph unicode="(" horiz-adv-x="500" d="M395 -105Q308 -65 245 0T149 148T116 320Q116 409 149 489T243 633T389 736L411 664Q363 638 324 602T257 521T214 425T199 317Q199 261 214 209T258 111T327 28T418 -35L395 -105Z" />
<glyph unicode=")" horiz-adv-x="500" d="M133 -105L110 -35Q161 -9 201 28T269 111T313 209T329 317Q329 373 314 424T271 520T204 601T117 664L139 736Q224 697 285 634T379 490T412 320Q412 231 379 149T283 1T133 -105Z" />
<glyph unicode="*" horiz-adv-x="500" d="M144 118L78 171L205 315L38 365L68 442L223 367L205 538H301L280 367L431 437L462 364L296 316L419 171L352 119L250 280L144 118Z" />
<glyph unicode="+" horiz-adv-x="500" d="M217 104V287H43V357H217V525H291V357H459V287H291V104H217Z" />
<glyph unicode="," horiz-adv-x="500" d="M204 -169L161 -132Q189 -106 206 -78T223 -30Q223 -20 216 -11T199 6T181 26T174 52Q174 80 192 97T239 115Q269 115 290 91T312 26Q312 5 306 -17T286 -64T252 -115T204 -169Z" />
<glyph unicode="-" horiz-adv-x="500" d="M109 278V354H393V278H109Z" />
<glyph unicode="." horiz-adv-x="500" d="M238 -11Q212 -11 193 7T174 52Q174 77 193 96T238 115Q264 115 282 96T301 52Q301 26 283 8T238 -11Z" />
<glyph unicode="/" horiz-adv-x="500" d="M132 -42L58 -8L369 666L443 628L132 -42Z" />
<glyph unicode="0" horiz-adv-x="500" d="M107 165L374 498L396 442L129 112L107 165ZM250 -11Q187 -11 143 26T74 134T50 308Q50 408 74 479T142 590T250 629Q313 629 357 590T426 480T450 308Q450 206 426 135T358 26T250 -11ZM250 58Q287 58 313 87T353 172T367
308Q367 385 353 440T313 527T250 558Q213 558 187 527T147 441T133 308Q133 228 147 172T187 87T250 58Z" />
<glyph unicode="1" horiz-adv-x="500" d="M223 0V525L101 487L82 538L246 624H307V0H223Z" />
<glyph unicode="2" horiz-adv-x="500" d="M68 65Q123 121 168 165T248 247T307 318T343 383T356 451Q356 480 349 500T328 532T296 551T256 557Q233 557 212 551T172 532T137 499Q128 485 126 478T125 462L120 457L113 462L53 508Q74 547 104 574T173 615T255
629Q309 629 350 607T415 545T439 450Q439 410 426 373T388 300T330 228T258 154T177 71H397Q414 71 421 73T434 81H442V71V0H68V65Z" />
<glyph unicode="3" horiz-adv-x="500" d="M238 -11Q187 -11 140 7T61 61L110 125L117 133L123 128Q124 120 127 113T141 93Q159 78 181 69T235 59Q272 59 296 73T333 114T346 175Q346 209 335 233T301 270T247 289T175 290V357Q222 356 252 365T298 390T321 426T328
470Q328 490 322 506T304 533T277 551T241 558Q221 558 202 553T164 538T128 511L79 561Q113 598 156 613T241 629Q294 629 332 609T391 554T412 472Q412 439 401 411T367 362T314 330Q347 320 374 299T416 247T432 172Q432 122 410 81T344 14T238 -11V-11Z" />
<glyph unicode="4" horiz-adv-x="500" d="M307 0V151H45V210L325 624H393V220H473V150H393V0H307ZM137 220H308V480L137 220Z" />
<glyph unicode="5" horiz-adv-x="500" d="M250 -11Q190 -11 141 14T61 86L124 135L132 141L137 136Q136 128 139 121T153 101Q172 80 195 70T252 60Q276 60 297 70T333 98T358 142T367 199Q367 231 358 257T333 301T295 329T247 339Q226 339 206 333T168 314T135
283L83 301L104 623H426V551H175L165 384Q181 392 197 397T230 405T263 408Q304 408 338 394T397 352T436 287T450 199Q450 134 424 87T353 15T250 -11V-11Z" />
<glyph unicode="6" horiz-adv-x="500" d="M261 -10Q197 -10 153 26T85 128T62 285Q62 396 90 473T169 590T286 631Q326 631 363 617T430 573L380 516L374 508L368 514Q367 522 363 528T346 545Q338 550 330 553T312 557T291 558Q275 558 256 553T219 534T184 496T157
432T145 336Q158 358 178 373T223 396T271 405Q307 405 338 391T393 351T430 286T444 201Q444 139 420 91T354 17T261 -10V-10ZM263 61Q284 61 302 70T334 97T356 140T364 200Q364 235 355 260T331 302T298 326T262 334Q245 334 229 328T198 312T171 287T148 256Q145
220 151 186T173 123T211 78T263 61V61Z" />
<glyph unicode="7" horiz-adv-x="500" d="M145 0Q174 94 204 185T267 366T335 547H74V623H436V576Q408 506 381 435T328 292T281 148T236 0H145Z" />
<glyph unicode="8" horiz-adv-x="500" d="M250 -10Q190 -10 146 12T78 73T54 158Q54 195 69 228T112 287T177 331Q150 347 129 369T96 418T84 476Q84 519 104 554T162 610T255 632Q313 632 350 612T407 557T426 482Q426 459 419 437T400 396T371 360T331 332Q358
319 379 301T415 261T439 214T447 162Q447 112 423 74T354 13T250 -10ZM252 63Q288 63 312 76T349 113T362 164Q362 186 353 206T328 244T288 275T235 298Q215 289 197 276T167 245T147 208T140 167Q140 138 153 115T191 77T252 63ZM268 360Q285 370 299 383T323
412T339 444T345 478Q345 500 335 519T304 550T253 562Q223 562 204 551T174 521T164 480Q164 459 172 442T194 410T228 384T268 360Z" />
<glyph unicode="9" horiz-adv-x="500" d="M227 -10Q180 -10 141 3T70 46L118 107L125 115L131 110Q132 102 136 96T152 78Q167 69 183 65T221 60Q258 60 284 81T328 138T354 220T363 316Q363 400 351 453T314 532T249 558Q225 558 205 549T171 522T149 479T141
422Q141 394 149 372T173 334T207 310T249 302Q281 302 304 309T346 333T382 378L389 298Q372 278 351 263T304 240T245 231Q206 231 172 244T113 283T75 344T61 423Q61 467 75 504T115 570T175 613T248 629Q309 629 352 595T419 500T442 356Q442 234 417 153T343
32T227 -10V-10Z" />
<glyph unicode=":" horiz-adv-x="500" d="M237 302Q211 302 192 321T173 365Q173 391 192 410T237 429Q262 429 282 411T302 365Q302 340 283 321T237 302ZM237 -11Q210 -11 192 7T173 52Q173 78 192 97T237 116Q262 116 282 97T302 52Q302 27 284 8T237 -11Z" />
<glyph unicode=";" horiz-adv-x="500" d="M204 -169L160 -132Q188 -106 205 -78T223 -30Q223 -20 216 -11T198 6T181 26T174 52Q174 71 182 85T205 107T239 115Q269 115 290 91T312 26Q312 -2 300 -33T264 -97T204 -169ZM237 302Q211 302 192 321T173 365Q173
391 192 410T237 429Q262 429 282 411T302 365Q302 340 283 321T237 302Z" />
<glyph unicode="&lt;" horiz-adv-x="500" d="M463 43L34 295V347L460 572V490L124 320L463 131V43Z" />
<glyph unicode="=" horiz-adv-x="500" d="M44 385V455H458V385H44ZM44 177V247H458V177H44Z" />
<glyph unicode="&gt;" horiz-adv-x="500" d="M39 43V130L377 320L41 490V572L468 347V295L39 43Z" />
<glyph unicode="?" horiz-adv-x="500" d="M221 235Q221 271 231 296T256 339T289 374T322 408T347 449T357 503Q357 525 350 542T328 571T295 589T253 596Q219 596 192 586T143 553Q133 540 131 533T129 518L124 512L116 518L62 560Q85 594 111 617T173 653T257
666Q312 666 352 646T415 591T438 507Q438 468 428 441T402 393T368 357T334 324T308 286T298 235V191H221V235ZM261 -11Q235 -11 216 7T197 52Q197 77 216 96T261 115Q287 115 305 96T324 52Q324 26 306 8T261 -11Z" />
<glyph unicode="@" horiz-adv-x="500" d="M295 -11Q245 -11 197 8T112 68T52 169T29 314Q29 396 50 456T106 556T184 614T271 633Q311 633 347 619T410 577T452 504T468 402V173H398V208Q381 187 358 176T306 165Q268 165 238 182T191 229T174 298Q174 333 187
361T227 410T297 441T395 448Q395 485 380 513T336 557T268 573Q234 573 203 559T148 513T110 435T96 323Q96 253 113 203T159 119T225 70T301 54Q329 54 356 62T408 89L440 33Q408 12 371 1T295 -11ZM317 227Q338 227 353 235T379 263T394 313T399 389Q346 393
312 383T261 353T244 303Q244 267 262 247T317 227Z" />
<glyph unicode="A" horiz-adv-x="500" d="M360 170H128L143 233H343L360 170ZM249 455L98 0H15L238 632H262L485 0H399L249 455Z" />
<glyph unicode="B" horiz-adv-x="500" d="M44 0V623H226Q280 623 320 612T386 581T424 532T437 470Q437 442 427 415T396 366T346 333Q372 323 393 307T430 271T453 226T462 177Q462 137 448 105T404 49T330 13T225 0H44ZM128 72H237Q278 72 308 83T356 118T373
180Q373 215 358 241T310 283T220 299H128V72ZM128 368H216Q267 368 297 380T339 413T352 461Q352 481 345 497T324 526T285 546T227 553H128V368Z" />
<glyph unicode="C" horiz-adv-x="500" d="M283 -10Q232 -10 188 8T110 66T57 165T38 308Q38 381 52 435T90 527T146 587T212 619T282 629Q351 629 399 596T473 507L409 470L400 466L397 473Q399 481 396 488T385 509Q361 540 336 551T282 562Q247 562 217 546T165
497T132 419T120 313Q120 256 132 210T167 130T218 79T282 61Q307 61 329 69T371 94T404 134L464 92Q433 40 389 15T283 -10V-10Z" />
<glyph unicode="D" horiz-adv-x="500" d="M50 -1V623H200Q255 623 292 613T355 585T402 538Q423 510 436 475T457 398T464 308Q462 236 446 179T397 82T313 21T188 -1H50ZM131 65H185Q255 65 298 93T361 176T381 305Q381 382 363 438T304 524T196 554H131V65Z" />
<glyph unicode="E" horiz-adv-x="500" d="M56 0V624H446V552H137V362H392V288H137V72H443V0H56Z" />
<glyph unicode="F" horiz-adv-x="500" d="M74 0V624H443V553H154V372H387V301H154V0H74Z" />
<glyph unicode="G" horiz-adv-x="500" d="M277 -10Q201 -10 146 29T62 139T32 306Q32 386 47 442T90 536T149 594T214 623T274 631Q313 631 349 618T415 581T462 525L408 477L400 470L395 476Q396 484 393 491T379 511Q365 527 350 537T317 553T275 558Q249 558
226 551T182 527T147 482T124 414T116 319Q116 256 127 208T159 128T210 79T277 62Q290 62 304 63T333 69T361 81T387 97V234H277V306H464V55Q420 22 373 6T277 -10V-10Z" />
<glyph unicode="H" horiz-adv-x="500" d="M46 623H132H142V615Q136 609 135 602T133 578V361H359V623H445H455V615Q449 609 448 602T446 578V0H359V291H133V0H46V623Z" />
<glyph unicode="I" horiz-adv-x="500" d="M77 0V70H200V553H84V623H405V553H282V69H411V0H77Z" />
<glyph unicode="J" horiz-adv-x="500" d="M195 -12Q150 -12 111 5T43 57L88 120L95 128L101 123Q102 115 105 108T121 89Q137 77 154 71T192 64Q223 64 243 78T272 126T282 212V553H164V623H460V553H366V210Q367 151 354 109T316 39T260 0T195 -12V-12Z" />
<glyph unicode="K" horiz-adv-x="500" d="M174 302L127 248V0H40V623H126H136V615Q130 609 129 602T127 578V347L370 628Q376 627 383 626T398 625T414 624T429 623H463L236 357L478 0L375 -4L174 302Z" />
<glyph unicode="L" horiz-adv-x="500" d="M63 623H149H159V615Q153 609 152 602T150 578V71H445V0H63V623Z" />
<glyph unicode="M" horiz-adv-x="500" d="M38 0V623H108L251 324L396 624H464V0H387V458L265 215H228L114 456V0H38Z" />
<glyph unicode="N" horiz-adv-x="500" d="M46 623H130L375 178L373 623H451H461V615Q455 609 454 602T452 578V0H380L124 472V0H46V623Z" />
<glyph unicode="O" horiz-adv-x="500" d="M251 -11Q178 -11 128 26T51 135T24 309Q24 409 50 480T127 590T251 629Q324 629 374 591T450 481T477 309Q477 207 451 135T374 26T251 -11ZM251 60Q295 60 326 88T374 172T391 309Q391 386 375 441T327 527T251 557Q207
557 175 527T127 442T110 309Q110 228 126 173T175 89T251 60Z" />
<glyph unicode="P" horiz-adv-x="500" d="M55 0V623H259Q330 623 374 599T440 534T461 445Q461 408 450 377T414 321T353 284T264 270H142V0H55ZM142 343H256Q298 343 324 355T362 391T374 443Q374 472 362 495T324 532T257 546H142V343Z" />
<glyph unicode="Q" horiz-adv-x="500" d="M393 -145Q345 -147 312 -141T258 -117T228 -73T218 -6Q166 2 123 39T53 144T26 309Q26 400 46 462T99 561T172 614T251 631Q296 631 337 613T409 555T458 456T475 311Q475 241 463 186T428 92T371 28T294 -6Q296 -26
302 -41T322 -65T361 -73L443 -69L441 -145H393ZM255 64Q280 64 304 76T349 117T381 189T394 298Q394 376 381 426T347 506T300 548T251 560Q216 560 189 541T144 490T117 414T108 322Q108 244 126 186T177 96T255 64Z" />
<glyph unicode="R" horiz-adv-x="500" d="M52 0V623H241Q316 623 362 601T430 539T452 443Q452 409 437 374T394 313T328 275L469 0H377L243 270H138V0H52ZM138 342H249Q309 342 337 369T365 442Q365 471 353 494T315 532T249 546H138V342Z" />
<glyph unicode="S" horiz-adv-x="500" d="M245 -10Q184 -10 134 9T46 67L89 140L93 149L100 145Q102 138 105 130T120 109Q146 88 179 76T253 63Q280 63 302 70T340 91T366 122T375 161Q375 177 372 190T359 214T335 236T296 260T238 288Q174 314 137 343T83 405T67
476Q67 522 91 557T158 612T260 632Q296 632 328 623T389 596T439 553L391 493L385 485L378 490Q377 498 374 506T360 526Q338 547 313 554T253 562Q230 562 212 556T180 538T160 512T152 481Q152 465 156 453T169 428T194 404T236 379T298 351Q345 331 376 312T424
272T450 226T458 170Q458 127 436 85T367 17T245 -10V-10Z" />
<glyph unicode="T" horiz-adv-x="500" d="M202 0V550H28V624H467V550H286V0H202Z" />
<glyph unicode="U" horiz-adv-x="500" d="M251 -12Q150 -12 98 48T45 216V623H128H138V615Q132 609 131 602T129 578V215Q129 143 156 101T252 58Q321 58 348 100T376 218V623H458V219Q458 140 432 89T360 13T251 -12V-12Z" />
<glyph unicode="V" horiz-adv-x="500" d="M230 -3L22 624H108L258 158L400 623H482L277 -3H230Z" />
<glyph unicode="W" horiz-adv-x="500" d="M109 0L15 623H91L149 212L243 576H277L371 211L420 623H490L397 0H356L255 399L152 0H109Z" />
<glyph unicode="X" horiz-adv-x="500" d="M37 0L205 318L40 624H128L251 397L371 624H454L299 319L473 0H381L252 236L126 0H37Z" />
<glyph unicode="Y" horiz-adv-x="500" d="M214 0V246L24 623H116L261 335L391 623H478L303 246V0H214Z" />
<glyph unicode="Z" horiz-adv-x="500" d="M46 57L352 549H58V623H452V566L151 73H423Q440 73 447 75T460 83H468V73V0H46V57Z" />
<glyph unicode="[" horiz-adv-x="500" d="M126 -89V670H421V599H205V-21H422V-89H126Z" />
<glyph unicode="\" horiz-adv-x="500" d="M371 -43L58 628L132 665L444 -8L371 -43Z" />
<glyph unicode="]" horiz-adv-x="500" d="M423 -89H127V-21H344V599H128V670H423V-89Z" />
<glyph unicode="^" horiz-adv-x="500" d="M148 339L86 369L239 623H272L409 370L345 339L252 507L148 339Z" />
<glyph unicode="_" horiz-adv-x="500" d="M34 -87V-16H467V-87H34Z" />
<glyph unicode="`" horiz-adv-x="500" d="M254 506L150 643L213 689L297 534L254 506Z" />
<glyph unicode="a" horiz-adv-x="500" d="M207 -11Q129 -11 87 24T45 116Q45 153 62 183T112 235T188 267T285 279Q299 279 314 279T347 278T383 274L386 211Q370 213 353 214T320 216T288 217Q251 217 222 211T172 194T141 165T130 124Q130 104 137 91T156 70T184
59T219 55Q255 55 282 66T329 101T359 157T369 236Q369 300 355 336T311 386T238 401Q205 401 175 390T117 351L73 404Q108 438 152 454T243 470Q288 470 325 460T389 424T432 357T447 251V0H356V63Q343 41 326 27T289 4T248 -7T207 -11Z" />
<glyph unicode="b" horiz-adv-x="500" d="M270 -11Q243 -11 219 -3T175 20T138 57L115 0H56V667H142H152V659Q146 653 145 646T143 622V396Q154 412 168 426T199 450T236 466T274 471Q316 471 350 456T410 412T448 338T462 235Q462 173 446 127T403 50T342 4T270
-11V-11ZM257 61Q280 61 301 69T339 98T365 150T375 229Q375 272 367 304T343 358T307 390T259 401Q224 401 198 380T158 320T143 230Q143 191 149 160T169 107T204 73T257 61V61Z" />
<glyph unicode="c" horiz-adv-x="500" d="M283 -11Q232 -11 190 7T116 57T68 132T50 228Q50 279 67 323T116 399T189 450T282 469Q341 469 386 446T460 383L409 330L403 323L397 329Q397 337 394 344T379 364Q358 383 334 390T277 398Q250 398 225 387T181 354T150
301T138 232Q138 194 149 164T181 111T228 76T287 63Q309 63 330 69T370 87T405 119L454 63Q419 25 375 7T283 -11V-11Z" />
<glyph unicode="d" horiz-adv-x="500" d="M231 -10Q195 -10 161 5T100 50T57 126T41 234Q41 296 57 340T101 414T163 458T234 472Q263 472 287 463T330 439T360 401V667H441H451V659Q445 653 444 646T442 622L443 68Q443 51 444 34T453 0H369Q364 12 362 22T360
42T359 64Q345 41 326 24T283 -1T231 -10V-10ZM245 62Q275 62 296 74T330 109T349 163T356 232Q356 283 344 321T306 381T240 403Q212 403 190 392T154 360T133 309T125 242Q125 187 139 147T181 85T245 62V62Z" />
<glyph unicode="e" horiz-adv-x="500" d="M272 -10Q222 -10 181 5T109 51T62 126T46 228Q46 286 62 331T108 407T176 454T259 471Q298 471 333 458T393 417T434 349T449 251Q449 242 449 232T447 213H128Q130 172 142 143T175 95T220 67T275 58Q298 58 318 63T357
79T390 106L436 62Q416 38 391 22T336 -2T272 -10ZM131 278H364Q364 308 356 331T334 371T300 396T254 405Q231 405 211 398T175 374T147 335T131 278Z" />
<glyph unicode="f" horiz-adv-x="500" d="M154 392H55V460H154V494Q154 556 177 595T241 654T330 673Q375 673 413 658T478 610L438 549L433 541L426 545Q424 553 421 561T407 580Q390 594 374 599T334 605Q306 605 284 594T250 559T238 495V460H384V392H238V0H154V392Z" />
<glyph unicode="g" horiz-adv-x="500" d="M244 -174Q196 -174 157 -166T91 -143T50 -106T35 -55Q35 -28 47 -7T78 30T122 53L159 34Q142 23 131 13T114 -11T108 -44Q108 -59 118 -71T146 -92T190 -104T248 -109Q291 -109 319 -101T361 -77T375 -42Q375 -22 367
-10T335 9T265 15Q231 15 201 18T147 28T105 45T79 72T69 109Q69 137 85 161T128 207L168 179Q158 168 152 161T142 146T139 130Q139 115 152 106T198 93T285 88Q335 88 367 79T417 54T442 16T450 -31Q450 -59 439 -84T403 -130T339 -162T244 -174ZM227 156Q178
156 141 177T84 234T63 316Q63 360 83 396T141 454T227 476Q277 476 313 454T370 396T391 316Q391 271 371 235T314 177T227 156ZM227 223Q254 223 274 235T307 269T320 316Q320 342 308 362T275 395T227 408Q201 408 180 396T147 362T135 316Q135 291 147 270T180
236T227 223ZM364 382L331 422Q360 449 393 462T468 472L478 406Q446 410 417 405T364 382Z" />
<glyph unicode="h" horiz-adv-x="500" d="M67 667H151H160V659Q155 653 154 646T152 622V385Q169 412 193 431T243 460T297 471Q339 471 371 452T421 390T439 278V0H355V276Q355 322 345 349T318 388T277 400Q259 400 241 394T207 377T179 349T159 311T152 264V0H67V667Z" />
<glyph unicode="i" horiz-adv-x="500" d="M95 0V68H211V391H101V460H297V68H403V0H95ZM505 549Q481 549 464 566T447 606Q447 631 463 647T505 663Q528 663 545 646T563 606Q563 583 546 566T505 549Z" />
<glyph unicode="j" horiz-adv-x="500" d="M193 -175Q149 -175 110 -158T44 -108L91 -45L97 -37L103 -42Q105 -50 108 -57T122 -77Q135 -88 152 -95T192 -102Q221 -102 242 -90T274 -51T286 18V391H119V460H373V24Q373 -46 348 -90T283 -154T193 -175V-175ZM323
549Q299 549 282 566T265 606Q265 631 281 647T323 663Q346 663 363 646T381 606Q381 583 364 566T323 549Z" />
<glyph unicode="k" horiz-adv-x="500" d="M201 223L148 173V0H61V667H147H157V659Q151 653 150 646T148 622V264L360 462Q367 461 374 460T388 459T404 458T418 457H454L264 276L483 0L378 -4L201 223Z" />
<glyph unicode="l" horiz-adv-x="500" d="M74 0V68H207V599H80V667H294V68H427V0H74Z" />
<glyph unicode="m" horiz-adv-x="500" d="M35 0V460H111V418Q122 435 136 446T166 464T200 471Q219 471 235 464T263 442T280 407Q290 427 305 441T340 463T382 471Q406 471 423 462T451 437T468 398T472 348V0H395V322Q395 360 391 378T378 402T357 408Q340 408
325 393T301 353T291 301V0H216V317Q216 371 207 389T172 407Q161 407 151 400T132 381T118 349T112 305V0H35Z" />
<glyph unicode="n" horiz-adv-x="500" d="M66 0V460H151V384Q168 410 191 429T241 460T299 471Q338 471 369 452T419 390T438 278V0H354V276Q354 321 344 348T316 387T275 400Q254 400 232 391T192 364T162 323T151 268V0H66Z" />
<glyph unicode="o" horiz-adv-x="500" d="M250 -9Q188 -9 140 21T63 106T35 230Q35 300 63 354T139 439T250 470Q312 470 360 439T437 354T465 230Q465 160 437 106T361 22T250 -9ZM250 61Q287 61 315 83T359 143T376 231Q376 281 360 319T315 378T250 400Q214
400 186 379T141 319T124 231Q124 181 140 143T184 83T250 61Z" />
<glyph unicode="p" horiz-adv-x="500" d="M56 -167V460H142V378Q154 410 174 430T221 460T278 470Q316 470 350 455T410 411T451 337T467 232Q467 171 451 125T408 49T346 4T276 -12Q250 -12 225 -5T180 18T144 53V-167H56ZM258 60Q281 60 302 68T341 96T369 149T379
232Q379 284 366 320T328 377T267 399Q240 401 218 391T178 359T152 302T143 217Q144 185 149 160T164 116T187 85T219 67T258 60Z" />
<glyph unicode="q" horiz-adv-x="500" d="M360 -167V63Q347 41 327 24T282 -1T229 -10Q188 -10 153 7T91 56T51 132T37 231Q37 287 52 331T94 407T159 455T239 471Q262 471 280 467T315 453T343 430T364 400V460H446V-167H360ZM244 61Q268 61 289 71T326 102T350
157T359 240Q359 285 351 316T328 367T294 394T250 403Q224 403 201 394T160 364T133 311T123 234Q123 192 131 160T156 106T194 73T244 61Z" />
<glyph unicode="r" horiz-adv-x="500" d="M109 460H198L196 328L185 340Q191 371 205 395T240 436T286 462T338 471Q375 471 405 459T461 420L424 351L420 342L413 346Q410 354 407 361T390 379Q375 390 361 394T329 398Q305 398 281 389T238 361T207 313T196
243V-1H109V460Z" />
<glyph unicode="s" horiz-adv-x="500" d="M254 -10Q214 -10 178 -3T111 21T53 62L96 138L102 147L108 143Q111 135 113 127T127 106Q150 85 180 72T256 59Q290 59 313 67T349 90T362 125Q362 139 356 149T337 169T302 187T249 206Q198 221 160 240T100 287T79
349Q79 386 99 413T158 455T252 471Q283 471 309 467T357 453T399 431T436 399L390 340L383 332L378 337Q377 345 374 352T358 371Q336 388 309 397T254 406Q216 406 189 393T161 353Q161 338 172 325T210 299T286 273Q342 256 377 237T428 193T444 134Q444 96
423 63T360 10T254 -10V-10Z" />
<glyph unicode="t" horiz-adv-x="500" d="M299 -8Q256 -8 228 6T183 51T161 130T157 246L169 574L258 585L268 586L269 579Q264 572 261 565T255 541L246 419L249 405L242 243Q239 171 246 132T270 77T315 62Q348 62 373 75T425 107L447 42Q413 17 377 5T299 -8V-8ZM66
460H405V391H66V460Z" />
<glyph unicode="u" horiz-adv-x="500" d="M218 -11Q191 -11 167 -4T123 20T89 61T67 120T59 199L60 460H144V199Q144 160 151 133T171 89T201 65T238 58Q261 58 281 66T317 93T342 138T351 203V460H436V72Q436 53 437 36T446 0H365Q360 11 358 22T356 44T355 67Q344
48 330 34T297 9T260 -6T218 -11Z" />
<glyph unicode="v" horiz-adv-x="500" d="M215 0L36 460H124L262 99H247L322 273Q345 326 358 372T377 460H458Q451 417 434 368T394 262L282 0H215Z" />
<glyph unicode="w" horiz-adv-x="500" d="M104 -1L14 460H88L155 109L229 414H278L369 110Q381 192 388 245T400 333T405 392T406 441V460H483Q474 384 463 306T439 151T409 -1H331L253 281L180 -1H104Z" />
<glyph unicode="x" horiz-adv-x="500" d="M41 0L202 232L43 460H136L248 299L355 460H443L295 236L463 0H367L248 168L136 0H41Z" />
<glyph unicode="y" horiz-adv-x="500" d="M127 -175Q94 -175 68 -165T20 -134L53 -76L59 -67L66 -71Q68 -79 73 -85T91 -100Q100 -103 109 -104T129 -106Q154 -106 171 -94T201 -56T228 9L320 283Q335 328 347 371T364 460H447Q441 414 426 366T393 272L279 -48Q253
-118 215 -146T127 -175V-175ZM41 460H129L273 87L232 -12L41 460Z" />
<glyph unicode="z" horiz-adv-x="500" d="M47 55L321 387H67V460H430V403L160 72H409Q426 72 433 74T446 82H453V72V0H47V55Z" />
<glyph unicode="{" horiz-adv-x="500" d="M369 -92Q297 -92 248 -77T174 -24T152 85L155 182Q155 224 146 247T118 278T72 287H47V353H71Q100 353 119 363T147 395T157 453L155 529Q155 587 177 626T241 684T343 704H410V637H325Q281 637 260 613T238 540L240
465Q240 430 231 402T202 354T156 320Q183 310 201 290T228 239T238 167L235 86Q235 45 247 21T285 -14T354 -25H409V-92H369Z" />
<glyph unicode="|" horiz-adv-x="500" d="M211 -151V652H290V-151H211Z" />
<glyph unicode="}" horiz-adv-x="500" d="M93 -92H53V-25H108Q151 -25 177 -15T215 20T227 86L224 167Q224 208 233 238T261 289T306 320Q279 333 260 353T232 402T222 465L224 540Q224 588 203 612T137 637H52V704H119Q180 704 221 685T285 626T307 529L305 453Q305
417 314 395T343 363T391 353H415V287H390Q364 287 345 279T317 247T307 182L310 85Q313 15 289 -23T215 -77T93 -92Z" />
<glyph unicode="~" horiz-adv-x="500" d="M347 260Q321 260 301 268T265 287T232 306T196 314Q172 314 154 304T119 268L63 301Q75 324 93 342T135 370T191 381Q217 381 236 373T271 354T304 335T341 327Q363 327 379 338T413 377L464 337Q447 310 429 293T391
268T347 260Z" />
<glyph unicode="&#xa0;" horiz-adv-x="500" />
<glyph unicode="&#xa1;" horiz-adv-x="500" d="M210 388H270L298 5Q298 -26 291 -45T271 -73T241 -82Q224 -82 211 -73T191 -46T184 -3L210 388ZM239 598Q266 598 286 579T306 534Q306 508 286 489T239 469Q212 469 193 488T173 534Q173 561 192 579T239 598Z" />
<glyph unicode="&#xa2;" horiz-adv-x="500" d="M257 -73H190L285 623H349L257 -73ZM283 32Q232 32 190 50T116 100T68 175T50 271Q50 322 67 366T116 442T189 493T282 512Q341 512 386 489T460 426L409 373L403 366L397 372Q397 380 394 387T379 407Q358 426 334
433T277 441Q250 441 225 430T181 397T150 344T138 275Q138 237 149 207T181 154T228 119T287 106Q309 106 330 112T370 130T405 162L454 106Q419 68 375 50T283 32V32Z" />
<glyph unicode="&#xa3;" horiz-adv-x="500" d="M66 -10L36 57Q77 77 100 97T133 146T144 223Q144 241 141 264T130 316H65V384H115Q112 400 111 414T109 443Q109 499 133 539T198 601T287 624Q326 624 359 611T421 570L372 508Q356 528 336 542T273 557Q248 557
229 543T200 504T189 444Q189 432 190 418T196 384H324V316H211Q218 290 220 267T223 225Q223 201 220 179T209 137T190 98Q215 101 238 96T284 82T328 67T371 60Q389 60 406 67T443 90L472 29Q445 7 419 -4T364 -15Q349 -15 327 -8T279 7T229 23T183 30Q159 30
131 20T66 -10Z" />
<glyph unicode="&#xa4;" horiz-adv-x="500" d="M108 160L63 203L118 259Q106 279 99 301T92 345Q92 368 98 390T119 432L63 489L108 532L164 476Q183 489 205 495T251 502Q273 502 294 496T336 477L392 532L437 489L382 434Q396 413 402 391T409 345Q409 321 403
299T382 257L437 203L392 160L337 214Q318 201 296 195T251 188Q227 188 205 195T163 215L108 160ZM250 251Q280 251 300 264T331 298T342 345Q342 371 332 392T301 426T250 440Q221 440 201 427T170 392T159 345Q159 320 169 299T200 264T250 251Z" />
<glyph unicode="&#xa5;" horiz-adv-x="500" d="M232 219H81V279H231L232 219ZM284 279H429V219H284V279ZM232 101H81V160H232V101ZM284 160H429V101H284V160ZM299 0H217V291L30 624H123L259 371L383 623H472L299 293V0Z" />
<glyph unicode="&#xa6;" horiz-adv-x="500" d="M211 291V652H290V291H211ZM211 -151V199H290V-151H211Z" />
<glyph unicode="&#xa7;" horiz-adv-x="500" d="M238 -55Q186 -55 139 -34T60 32L117 105Q123 104 124 101T126 92T132 77T151 54Q162 43 174 37T201 26T233 22Q255 22 273 27T302 43T320 66T327 94Q327 115 318 130T285 158T218 183Q167 200 136 219T90 262T76
316Q76 333 81 347T97 376T122 400T155 417Q123 436 107 463T90 528Q90 567 112 600T171 653T257 674Q291 674 321 663T376 631T418 580L354 524Q352 527 350 530T347 537Q345 550 337 562T318 583T291 598T258 604Q236 604 217 595T188 570T177 534Q177 514 185
500T210 475T255 453T319 427Q342 418 360 406T392 378T413 345T421 306Q421 286 412 267T387 233T350 209Q380 187 395 160T411 101Q411 67 398 39T362 -10T307 -43T238 -55ZM306 232Q317 239 323 247T333 267T337 291Q337 307 331 319T313 341T282 361T238 379L199
393Q190 390 183 384T171 371T163 354T160 335Q160 320 165 308T182 285T212 267T256 250Q272 245 284 241T306 232Z" />
<glyph unicode="&#xa8;" horiz-adv-x="500" d="M162 559Q139 559 122 575T105 613Q105 635 122 652T162 669Q185 669 201 653T218 613Q218 591 201 575T162 559ZM342 559Q319 559 303 574T286 613Q286 636 302 652T342 669Q365 669 381 652T397 613Q397 591 381
575T342 559Z" />
<glyph unicode="&#xa9;" horiz-adv-x="500" d="M258 124Q217 124 185 144T134 200T115 276Q115 308 126 334T157 380T201 411T252 422Q307 422 341 396T386 326L327 307Q323 313 323 317T323 327T318 338T299 355Q292 360 282 363T260 366Q248 366 235 361T209
346T188 320T180 281Q180 253 191 231T221 196T264 182Q278 182 291 187T315 201T331 224L382 194Q362 161 329 143T258 124ZM252 19Q202 19 159 39T82 94T30 175T11 274Q11 327 30 373T82 454T160 509T254 529Q304 529 348 509T425 454T478 373T498 274Q498 231
486 193T451 123T398 68T330 32T252 19ZM255 67Q295 67 330 83T392 128T434 194T449 275Q449 317 434 355T392 421T330 466T255 483Q216 483 181 467T120 422T78 356T62 274Q62 231 77 194T119 128T181 83T255 67Z" />
<glyph unicode="&#xaa;" horiz-adv-x="500" d="M216 258Q159 258 128 286T97 358Q97 397 119 426T182 470T278 486Q287 486 297 486T319 485T343 482L345 429Q336 431 324 431T301 432T279 433Q242 433 218 425T182 402T169 366Q169 348 177 337T198 320T228 315Q252
315 270 323T301 348T320 390T327 451Q327 498 318 524T289 561T240 572Q217 572 196 564T154 535L116 580Q143 607 176 618T244 630Q289 630 323 616T376 566T396 465V267H321V312Q311 296 299 286T274 269T246 261T216 258ZM74 214H428V150H74V214Z" />
<glyph unicode="&#xab;" horiz-adv-x="500" d="M225 56L64 229V255L220 406L263 361L143 241L270 100L225 56ZM402 56L241 229V255L396 406L441 360L319 241L448 101L402 56Z" />
<glyph unicode="&#xac;" horiz-adv-x="500" d="M340 156V280H88V353H417V156H340Z" />
<glyph unicode="&#xad;" horiz-adv-x="500" d="M109 278V354H393V278H109Z" />
<glyph unicode="&#xae;" horiz-adv-x="500" d="M319 135L262 254H207V138H156V419H247Q290 419 316 409T354 380T366 336Q366 312 353 291T312 262L372 143L319 135ZM207 296H252Q283 296 298 306T314 335Q314 354 298 364T249 374H207V296ZM252 19Q202 19 159
39T82 94T30 175T11 274Q11 327 30 373T82 454T160 509T254 529Q304 529 348 509T425 454T478 373T498 274Q498 231 486 193T451 123T398 68T330 32T252 19ZM255 67Q295 67 330 83T392 128T434 194T449 275Q449 317 434 355T392 421T330 466T255 483Q216 483 181
467T120 422T78 356T62 274Q62 231 77 194T119 128T181 83T255 67Z" />
<glyph unicode="&#xaf;" horiz-adv-x="500" d="M118 565V628H381V565H118Z" />
<glyph unicode="&#xb0;" horiz-adv-x="500" d="M256 374Q218 374 186 392T136 442T117 511Q117 540 128 565T159 608T203 637T256 648Q294 648 325 629T376 579T395 511Q395 474 377 443T327 393T256 374ZM256 438Q276 438 291 448T315 475T324 512Q324 532 315
549T292 576T257 587Q238 587 223 577T198 549T189 512Q189 492 198 475T222 448T256 438Z" />
<glyph unicode="&#xb1;" horiz-adv-x="500" d="M217 154V338H43V408H217V576H291V408H459V338H291V154H217ZM44 12V85H459V12H44Z" />
<glyph unicode="&#xb2;" horiz-adv-x="500" d="M123 292Q171 336 207 368T268 425T306 475T319 525Q319 546 311 559T288 577T253 583Q234 583 217 578T185 562Q175 550 172 543T169 528L164 522L156 528L112 563Q135 598 171 617T253 637Q289 637 318 624T364
585T381 525Q381 495 368 468T333 415T280 360T213 298H338Q355 298 362 300T375 308H383V298V246H123V292Z" />
<glyph unicode="&#xb3;" horiz-adv-x="500" d="M241 239Q205 239 172 250T116 285L152 330L158 338L164 333Q165 325 169 319T187 302Q198 297 210 294T239 290Q275 290 294 308T313 356Q313 382 299 397T259 419T196 421V471Q228 471 248 475T280 488T296 509T301
534Q301 550 294 561T273 578T242 584Q221 584 202 578T165 555L127 593Q151 617 181 627T243 637Q297 637 330 610T364 539Q364 507 347 484T300 451Q321 445 338 433T366 401T377 353Q377 321 361 295T315 254T241 239V239Z" />
<glyph unicode="&#xb4;" horiz-adv-x="500" d="M255 518L212 546L296 701L359 655L255 518Z" />
<glyph unicode="&#xb5;" horiz-adv-x="500" d="M21 -163Q21 -146 23 -114T27 -41T33 44T38 129T40 203V460H121V185Q121 147 128 122T146 82T173 61T207 54Q236 54 256 70T286 117T296 188V460H375V119Q375 99 379 86T391 66T411 59Q423 59 436 70T456 93L462
106L494 46Q474 17 452 4T403 -10Q384 -10 367 -1T339 24T324 59Q314 36 296 21T255 -2T208 -10Q186 -10 164 -3T125 18T98 55Q98 30 98 2T98 -54T97 -109T96 -163H21Z" />
<glyph unicode="&#xb6;" horiz-adv-x="500" d="M230 -68V320Q194 324 162 338T106 377T70 433T56 501Q56 544 79 581T157 642T304 665H445V-68H373V598H303V-68H230Z" />
<glyph unicode="&#xb7;" horiz-adv-x="500" d="M238 269Q211 269 193 287T174 332Q174 358 193 376T238 395Q264 395 284 377T304 332Q304 306 285 288T238 269Z" />
<glyph unicode="&#xb8;" horiz-adv-x="500" d="M269 -200Q241 -200 214 -192T161 -165L190 -115Q212 -133 234 -140T281 -148Q305 -148 317 -140T330 -116Q330 -101 317 -94T280 -86H244L255 0H311L306 -42Q334 -44 352 -54T380 -78T389 -109Q389 -146 359 -173T269
-200Z" />
<glyph unicode="&#xb9;" horiz-adv-x="500" d="M228 246V563L147 538L133 578L244 633H292V246H228Z" />
<glyph unicode="&#xba;" horiz-adv-x="500" d="M250 260Q204 260 168 282T111 347T90 445Q90 500 111 542T168 607T250 630Q296 630 332 607T389 542T410 445Q410 389 389 348T332 283T250 260ZM250 319Q276 319 295 335T325 379T336 446Q336 484 325 512T295
555T250 571Q225 571 206 556T175 512T164 446Q164 408 175 380T205 335T250 319ZM74 214H428V150H74V214Z" />
<glyph unicode="&#xbb;" horiz-adv-x="500" d="M293 56L248 100L375 241L255 361L298 406L454 255V229L293 56ZM116 56L70 101L199 241L77 360L122 406L277 255V229L116 56Z" />
<glyph unicode="&#xbc;" horiz-adv-x="500" d="M89 380V626L28 606L15 642L104 686H146V380H89ZM391 -70V2H256V38L403 236H446V46H491V1H446V-70H391ZM316 46H392V150L316 46ZM123 -42L71 -12L383 667L436 635L123 -42Z" />
<glyph unicode="&#xbd;" horiz-adv-x="500" d="M89 380V626L28 606L15 642L104 686H146V380H89ZM278 -70V-30Q316 5 345 30T393 75T422 112T432 151Q432 166 426 175T408 188T381 192Q365 192 352 188T328 175T308 151L270 181Q287 209 316 224T381 240Q411 240
434 229T472 198T486 151Q486 127 477 107T450 66T410 24T358 -24H486V-70H278ZM123 -42L71 -12L383 667L436 635L123 -42Z" />
<glyph unicode="&#xbe;" horiz-adv-x="500" d="M102 374Q73 374 46 383T1 410L31 451L37 459L43 454Q45 447 50 441T68 425Q74 422 82 421T100 419Q127 419 141 432T156 467Q156 487 146 499T115 515T66 516V559Q90 559 106 562T131 572T144 587T148 604Q148 617
142 625T126 638T102 643Q86 643 71 638T42 620L9 653Q28 673 53 681T103 690Q148 690 175 668T203 611Q203 585 188 568T152 542Q176 535 194 517T212 464Q212 427 183 401T102 374V374ZM391 2H256V38L403 236H446V46H491V1H446V-70H391V2ZM392 46V150L316 46H392ZM123
-42L71 -12L383 667L436 635L123 -42Z" />
<glyph unicode="&#xbf;" horiz-adv-x="500" d="M277 311Q277 276 267 251T242 207T209 172T176 138T151 98T141 43Q141 22 148 5T170 -25T203 -43T245 -50Q279 -50 306 -40T355 -7Q365 6 367 13T369 28L374 34L382 28L436 -14Q414 -47 387 -71T325 -107T241 -120Q186
-120 146 -100T83 -45T60 39Q60 78 70 105T96 153T130 189T164 222T190 260T200 311V355H277V311ZM237 557Q263 557 282 539T301 494Q301 469 282 450T237 431Q211 431 193 450T174 494Q174 520 192 538T237 557V557Z" />
<glyph unicode="&#xc0;" horiz-adv-x="500" d="M360 170H128L143 233H343L360 170ZM249 455L98 0H15L238 632H262L485 0H399L249 455ZM811 658L638 720L680 795L836 704L811 658Z" />
<glyph unicode="&#xc1;" horiz-adv-x="500" d="M360 170H128L143 233H343L360 170ZM249 455L98 0H15L238 632H262L485 0H399L249 455ZM432 658L408 704L563 795L605 720L432 658Z" />
<glyph unicode="&#xc2;" horiz-adv-x="500" d="M360 170H128L143 233H343L360 170ZM249 455L98 0H15L238 632H262L485 0H399L249 455ZM120 653L86 697L235 794H260L414 697L381 654L249 722L120 653Z" />
<glyph unicode="&#xc3;" horiz-adv-x="500" d="M360 170H128L143 233H343L360 170ZM249 455L98 0H15L238 632H262L485 0H399L249 455ZM886 790L936 761Q915 719 894 702T842 684Q817 684 799 692T767 712T740 732T710 741Q693 741 680 730T655 693L601 718Q616
755 642 777T707 800Q730 800 747 792T778 772T806 753T837 744Q853 744 863 754T886 790Z" />
<glyph unicode="&#xc4;" horiz-adv-x="500" d="M360 170H128L143 233H343L360 170ZM249 455L98 0H15L238 632H262L485 0H399L249 455ZM415 686Q393 686 376 702T359 741Q359 763 376 780T415 797Q439 797 455 780T472 741Q472 719 455 703T415 686ZM595 686Q573
686 557 702T540 741Q540 764 556 780T595 797Q619 797 635 780T651 741Q651 719 635 703T595 686Z" />
<glyph unicode="&#xc5;" horiz-adv-x="500" d="M360 170H128L143 233H343L360 170ZM249 455L98 0H15L238 632H262L485 0H399L249 455ZM761 618Q735 618 713 630T678 664T665 710Q665 735 678 756T713 789T761 802Q787 802 808 790T843 756T856 709Q856 685 844
664T810 631T761 618ZM762 668Q777 668 788 680T800 710Q800 729 789 741T762 754Q746 754 735 742T723 710Q723 692 734 680T762 668Z" />
<glyph unicode="&#xc6;" horiz-adv-x="500" d="M10 0L205 624H496V552H330V361H470V288H330V72H494V0H254V166H139L89 0H10ZM156 235H255L257 542H249L156 235Z" />
<glyph unicode="&#xc7;" horiz-adv-x="500" d="M283 -10Q232 -10 188 8T110 66T57 165T38 308Q38 381 52 435T90 527T146 587T212 619T282 629Q351 629 399 596T473 507L409 470L400 466L397 473Q399 481 396 488T385 509Q361 540 336 551T282 562Q247 562 217
546T165 497T132 419T120 313Q120 256 132 210T167 130T218 79T282 61Q307 61 329 69T371 94T404 134L464 92Q433 40 389 15T283 -10V-10ZM276 -200Q248 -200 221 -192T168 -165L197 -115Q219 -133 241 -140T288 -148Q312 -148 324 -140T337 -116Q337 -101 324
-94T287 -86H251L262 0H318L313 -42Q341 -44 359 -54T387 -78T396 -109Q396 -146 366 -173T276 -200Z" />
<glyph unicode="&#xc8;" horiz-adv-x="500" d="M56 0V624H446V552H137V362H392V288H137V72H443V0H56ZM822 658L649 720L691 795L847 704L822 658Z" />
<glyph unicode="&#xc9;" horiz-adv-x="500" d="M56 0V624H446V552H137V362H392V288H137V72H443V0H56ZM443 658L419 704L574 795L616 720L443 658Z" />
<glyph unicode="&#xca;" horiz-adv-x="500" d="M56 0V624H446V552H137V362H392V288H137V72H443V0H56ZM131 653L97 697L246 794H271L425 697L392 654L260 722L131 653Z" />
<glyph unicode="&#xcb;" horiz-adv-x="500" d="M56 0V624H446V552H137V362H392V288H137V72H443V0H56ZM170 686Q148 686 131 702T114 741Q114 763 131 780T170 797Q194 797 210 780T227 741Q227 719 210 703T170 686ZM350 686Q328 686 312 702T295 741Q295 764
311 780T350 797Q374 797 390 780T406 741Q406 719 390 703T350 686Z" />
<glyph unicode="&#xcc;" horiz-adv-x="500" d="M77 0V70H200V553H84V623H405V553H282V69H411V0H77ZM802 658L629 720L671 795L827 704L802 658Z" />
<glyph unicode="&#xcd;" horiz-adv-x="500" d="M77 0V70H200V553H84V623H405V553H282V69H411V0H77ZM423 658L399 704L554 795L596 720L423 658Z" />
<glyph unicode="&#xce;" horiz-adv-x="500" d="M77 0V70H200V553H84V623H405V553H282V69H411V0H77ZM367 653L333 697L482 794H507L661 697L628 654L496 722L367 653Z" />
<glyph unicode="&#xcf;" horiz-adv-x="500" d="M77 0V70H200V553H84V623H405V553H282V69H411V0H77ZM406 686Q384 686 367 702T350 741Q350 763 367 780T406 797Q430 797 446 780T463 741Q463 719 446 703T406 686ZM586 686Q564 686 548 702T531 741Q531 764 547
780T586 797Q610 797 626 780T642 741Q642 719 626 703T586 686Z" />
<glyph unicode="&#xd0;" horiz-adv-x="500" d="M71 -1V295H25V364H71V623H216Q263 623 297 614T357 588T400 551T430 510Q441 492 450 464T465 396T471 308Q471 236 454 179T404 82T320 21T204 -1H71ZM149 68H202Q264 68 306 96T369 177T390 305Q390 382 372 437T314
522T212 552H149V364H250V295H149V68Z" />
<glyph unicode="&#xd1;" horiz-adv-x="500" d="M46 623H130L375 178L373 623H451H461V615Q455 609 454 602T452 578V0H380L124 472V0H46V623ZM885 790L935 761Q914 719 893 702T841 684Q816 684 798 692T766 712T739 732T709 741Q692 741 679 730T654 693L600
718Q615 755 641 777T706 800Q729 800 746 792T777 772T805 753T836 744Q852 744 862 754T885 790Z" />
<glyph unicode="&#xd2;" horiz-adv-x="500" d="M251 -11Q178 -11 128 26T51 135T24 309Q24 409 50 480T127 590T251 629Q324 629 374 591T450 481T477 309Q477 207 451 135T374 26T251 -11ZM251 60Q295 60 326 88T374 172T391 309Q391 386 375 441T327 527T251
557Q207 557 175 527T127 442T110 309Q110 228 126 173T175 89T251 60ZM812 659L639 721L681 796L837 705L812 659Z" />
<glyph unicode="&#xd3;" horiz-adv-x="500" d="M251 -11Q178 -11 128 26T51 135T24 309Q24 409 50 480T127 590T251 629Q324 629 374 591T450 481T477 309Q477 207 451 135T374 26T251 -11ZM251 60Q295 60 326 88T374 172T391 309Q391 386 375 441T327 527T251
557Q207 557 175 527T127 442T110 309Q110 228 126 173T175 89T251 60ZM432 659L408 705L563 796L605 721L432 659Z" />
<glyph unicode="&#xd4;" horiz-adv-x="500" d="M251 -11Q178 -11 128 26T51 135T24 309Q24 409 50 480T127 590T251 629Q324 629 374 591T450 481T477 309Q477 207 451 135T374 26T251 -11ZM251 60Q295 60 326 88T374 172T391 309Q391 386 375 441T327 527T251
557Q207 557 175 527T127 442T110 309Q110 228 126 173T175 89T251 60ZM120 654L86 698L235 795H260L414 698L381 655L249 723L120 654Z" />
<glyph unicode="&#xd5;" horiz-adv-x="500" d="M251 -11Q178 -11 128 26T51 135T24 309Q24 409 50 480T127 590T251 629Q324 629 374 591T450 481T477 309Q477 207 451 135T374 26T251 -11ZM251 60Q295 60 326 88T374 172T391 309Q391 386 375 441T327 527T251
557Q207 557 175 527T127 442T110 309Q110 228 126 173T175 89T251 60ZM886 791L936 762Q915 720 894 703T842 685Q817 685 799 693T767 713T740 733T710 742Q693 742 680 731T655 694L601 719Q616 756 642 778T707 801Q730 801 747 793T778 773T806 754T837 745Q853
745 863 755T886 791Z" />
<glyph unicode="&#xd6;" horiz-adv-x="500" d="M251 -11Q178 -11 128 26T51 135T24 309Q24 409 50 480T127 590T251 629Q324 629 374 591T450 481T477 309Q477 207 451 135T374 26T251 -11ZM251 60Q295 60 326 88T374 172T391 309Q391 386 375 441T327 527T251
557Q207 557 175 527T127 442T110 309Q110 228 126 173T175 89T251 60ZM160 687Q138 687 121 703T104 742Q104 764 121 781T160 798Q184 798 200 781T217 742Q217 720 200 704T160 687ZM340 687Q318 687 302 703T285 742Q285 765 301 781T340 798Q364 798 380 781T396
742Q396 720 380 704T340 687Z" />
<glyph unicode="&#xd7;" horiz-adv-x="500" d="M378 144L254 274L132 148L80 200L203 328L80 458L135 512L256 384L378 511L435 460L308 329L432 198L378 144Z" />
<glyph unicode="&#xd8;" horiz-adv-x="500" d="M86 -47L38 -24L413 682L460 658L86 -47ZM251 -11Q178 -11 128 26T51 135T24 309Q24 409 50 480T127 590T251 629Q324 629 374 591T450 481T477 309Q477 207 451 135T374 26T251 -11ZM251 60Q295 60 326 88T374 172T391
309Q391 386 375 441T327 527T251 557Q207 557 175 527T127 442T110 309Q110 228 126 173T175 89T251 60Z" />
<glyph unicode="&#xd9;" horiz-adv-x="500" d="M251 -12Q150 -12 98 48T45 216V623H128H138V615Q132 609 131 602T129 578V215Q129 143 156 101T252 58Q321 58 348 100T376 218V623H458V219Q458 140 432 89T360 13T251 -12V-12ZM811 658L638 720L680 795L836 704L811
658Z" />
<glyph unicode="&#xda;" horiz-adv-x="500" d="M251 -12Q150 -12 98 48T45 216V623H128H138V615Q132 609 131 602T129 578V215Q129 143 156 101T252 58Q321 58 348 100T376 218V623H458V219Q458 140 432 89T360 13T251 -12V-12ZM432 658L408 704L563 795L605 720L432
658Z" />
<glyph unicode="&#xdb;" horiz-adv-x="500" d="M251 -12Q150 -12 98 48T45 216V623H128H138V615Q132 609 131 602T129 578V215Q129 143 156 101T252 58Q321 58 348 100T376 218V623H458V219Q458 140 432 89T360 13T251 -12V-12ZM120 653L86 697L235 794H260L414
697L381 654L249 722L120 653Z" />
<glyph unicode="&#xdc;" horiz-adv-x="500" d="M251 -12Q150 -12 98 48T45 216V623H128H138V615Q132 609 131 602T129 578V215Q129 143 156 101T252 58Q321 58 348 100T376 218V623H458V219Q458 140 432 89T360 13T251 -12V-12ZM415 686Q393 686 376 702T359 741Q359
763 376 780T415 797Q439 797 455 780T472 741Q472 719 455 703T415 686ZM595 686Q573 686 557 702T540 741Q540 764 556 780T595 797Q619 797 635 780T651 741Q651 719 635 703T595 686Z" />
<glyph unicode="&#xdd;" horiz-adv-x="500" d="M214 0V246L24 623H116L261 335L391 623H478L303 246V0H214ZM432 658L408 704L563 795L605 720L432 658Z" />
<glyph unicode="&#xde;" horiz-adv-x="500" d="M56 0V623H149Q150 622 150 622T151 619Q151 616 147 611T141 593V508H260Q331 508 375 484T440 420T461 330Q461 281 441 241T377 178T265 154H141V0H56ZM141 225H262Q302 225 327 238T363 275T375 327Q375 356
363 379T325 418T258 433H141V225Z" />
<glyph unicode="&#xdf;" horiz-adv-x="500" d="M283 -11Q253 -11 228 -4T179 20L217 86Q230 74 246 68T283 62Q303 62 321 72T354 101T376 142T384 194Q384 219 376 242T350 282T306 308T242 318H208V385H248Q262 385 276 389T302 402T323 423T337 452T342 489Q342
514 335 534T314 569T282 593T240 602Q206 602 182 581T145 521T132 430V0H50V426Q50 509 73 563T138 643T232 670Q287 670 330 646T397 581T422 494Q422 466 413 440T387 394T344 360Q372 351 394 335T431 295T455 243T464 182Q464 128 442 84T379 15T283 -11Z"
/>
<glyph unicode="&#xe0;" horiz-adv-x="500" d="M207 -11Q129 -11 87 24T45 116Q45 153 62 183T112 235T188 267T285 279Q299 279 314 279T347 278T383 274L386 211Q370 213 353 214T320 216T288 217Q251 217 222 211T172 194T141 165T130 124Q130 104 137 91T156
70T184 59T219 55Q255 55 282 66T329 101T359 157T369 236Q369 300 355 336T311 386T238 401Q205 401 175 390T117 351L73 404Q108 438 152 454T243 470Q288 470 325 460T389 424T432 357T447 251V0H356V63Q343 41 326 27T289 4T248 -7T207 -11ZM497 506L393 643L456
689L540 534L497 506Z" />
<glyph unicode="&#xe1;" horiz-adv-x="500" d="M207 -11Q129 -11 87 24T45 116Q45 153 62 183T112 235T188 267T285 279Q299 279 314 279T347 278T383 274L386 211Q370 213 353 214T320 216T288 217Q251 217 222 211T172 194T141 165T130 124Q130 104 137 91T156
70T184 59T219 55Q255 55 282 66T329 101T359 157T369 236Q369 300 355 336T311 386T238 401Q205 401 175 390T117 351L73 404Q108 438 152 454T243 470Q288 470 325 460T389 424T432 357T447 251V0H356V63Q343 41 326 27T289 4T248 -7T207 -11ZM494 762L451 790L535
945L598 899L494 762Z" />
<glyph unicode="&#xe2;" horiz-adv-x="500" d="M207 -11Q129 -11 87 24T45 116Q45 153 62 183T112 235T188 267T285 279Q299 279 314 279T347 278T383 274L386 211Q370 213 353 214T320 216T288 217Q251 217 222 211T172 194T141 165T130 124Q130 104 137 91T156
70T184 59T219 55Q255 55 282 66T329 101T359 157T369 236Q369 300 355 336T311 386T238 401Q205 401 175 390T117 351L73 404Q108 438 152 454T243 470Q288 470 325 460T389 424T432 357T447 251V0H356V63Q343 41 326 27T289 4T248 -7T207 -11ZM393 763L349 801L490
941H518L659 801L615 763L504 870L393 763Z" />
<glyph unicode="&#xe3;" horiz-adv-x="500" d="M207 -11Q129 -11 87 24T45 116Q45 153 62 183T112 235T188 267T285 279Q299 279 314 279T347 278T383 274L386 211Q370 213 353 214T320 216T288 217Q251 217 222 211T172 194T141 165T130 124Q130 104 137 91T156
70T184 59T219 55Q255 55 282 66T329 101T359 157T369 236Q369 300 355 336T311 386T238 401Q205 401 175 390T117 351L73 404Q108 438 152 454T243 470Q288 470 325 460T389 424T432 357T447 251V0H356V63Q343 41 326 27T289 4T248 -7T207 -11ZM624 674L674 645Q653
603 632 586T580 568Q555 568 537 576T505 596T478 616T448 625Q431 625 418 614T393 577L339 602Q354 639 380 661T445 684Q468 684 485 676T516 656T544 637T575 628Q591 628 601 638T624 674Z" />
<glyph unicode="&#xe4;" horiz-adv-x="500" d="M207 -11Q129 -11 87 24T45 116Q45 153 62 183T112 235T188 267T285 279Q299 279 314 279T347 278T383 274L386 211Q370 213 353 214T320 216T288 217Q251 217 222 211T172 194T141 165T130 124Q130 104 137 91T156
70T184 59T219 55Q255 55 282 66T329 101T359 157T369 236Q369 300 355 336T311 386T238 401Q205 401 175 390T117 351L73 404Q108 438 152 454T243 470Q288 470 325 460T389 424T432 357T447 251V0H356V63Q343 41 326 27T289 4T248 -7T207 -11ZM415 559Q392 559
375 575T358 613Q358 635 375 652T415 669Q438 669 454 653T471 613Q471 591 454 575T415 559ZM595 559Q572 559 556 574T539 613Q539 636 555 652T595 669Q618 669 634 652T650 613Q650 591 634 575T595 559Z" />
<glyph unicode="&#xe5;" horiz-adv-x="500" d="M207 -11Q129 -11 87 24T45 116Q45 153 62 183T112 235T188 267T285 279Q299 279 314 279T347 278T383 274L386 211Q370 213 353 214T320 216T288 217Q251 217 222 211T172 194T141 165T130 124Q130 104 137 91T156
70T184 59T219 55Q255 55 282 66T329 101T359 157T369 236Q369 300 355 336T311 386T238 401Q205 401 175 390T117 351L73 404Q108 438 152 454T243 470Q288 470 325 460T389 424T432 357T447 251V0H356V63Q343 41 326 27T289 4T248 -7T207 -11ZM502 515Q476 515
455 527T420 561T407 607Q407 632 420 653T454 686T502 699Q528 699 550 687T585 654T598 607Q598 582 585 561T550 528T502 515ZM503 565Q518 565 529 577T541 608Q541 626 530 639T503 652Q487 652 476 639T465 608Q465 590 476 578T503 565Z" />
<glyph unicode="&#xe6;" horiz-adv-x="500" d="M143 -11Q99 -11 69 6T23 54T7 125Q7 161 21 189T61 238T126 270T215 283Q215 323 207 350T183 391T141 405Q121 405 102 394T67 361L26 412Q50 441 80 455T148 470Q172 470 193 463T232 442T258 410Q270 428 286
441T321 462T359 470Q406 470 435 446T477 376T491 269V228L287 221V176Q287 149 293 127T312 88T342 64T382 55Q398 55 411 59T435 72T456 94L496 46Q473 18 443 4T377 -11Q352 -11 330 -3T288 20T255 55Q244 35 227 20T188 -3T143 -11ZM146 58Q177 58 192 77T211
133T216 217Q168 215 139 205T96 175T82 124Q82 99 89 85T111 64T146 58ZM287 284L426 289Q426 327 419 353T398 392T360 405Q338 405 322 391T296 350T287 284Z" />
<glyph unicode="&#xe7;" horiz-adv-x="500" d="M283 -11Q232 -11 190 7T116 57T68 132T50 228Q50 279 67 323T116 399T189 450T282 469Q341 469 386 446T460 383L409 330L403 323L397 329Q397 337 394 344T379 364Q358 383 334 390T277 398Q250 398 225 387T181
354T150 301T138 232Q138 194 149 164T181 111T228 76T287 63Q309 63 330 69T370 87T405 119L454 63Q419 25 375 7T283 -11V-11ZM281 -200Q253 -200 226 -192T173 -165L202 -115Q224 -133 246 -140T293 -148Q317 -148 329 -140T342 -116Q342 -101 329 -94T292 -86H256L267
0H323L318 -42Q346 -44 364 -54T392 -78T401 -109Q401 -146 371 -173T281 -200Z" />
<glyph unicode="&#xe8;" horiz-adv-x="500" d="M272 -10Q222 -10 181 5T109 51T62 126T46 228Q46 286 62 331T108 407T176 454T259 471Q298 471 333 458T393 417T434 349T449 251Q449 242 449 232T447 213H128Q130 172 142 143T175 95T220 67T275 58Q298 58 318
63T357 79T390 106L436 62Q416 38 391 22T336 -2T272 -10ZM131 278H364Q364 308 356 331T334 371T300 396T254 405Q231 405 211 398T175 374T147 335T131 278ZM509 506L405 643L468 689L552 534L509 506Z" />
<glyph unicode="&#xe9;" horiz-adv-x="500" d="M272 -10Q222 -10 181 5T109 51T62 126T46 228Q46 286 62 331T108 407T176 454T259 471Q298 471 333 458T393 417T434 349T449 251Q449 242 449 232T447 213H128Q130 172 142 143T175 95T220 67T275 58Q298 58 318
63T357 79T390 106L436 62Q416 38 391 22T336 -2T272 -10ZM131 278H364Q364 308 356 331T334 371T300 396T254 405Q231 405 211 398T175 374T147 335T131 278ZM506 762L463 790L547 945L610 899L506 762Z" />
<glyph unicode="&#xea;" horiz-adv-x="500" d="M272 -10Q222 -10 181 5T109 51T62 126T46 228Q46 286 62 331T108 407T176 454T259 471Q298 471 333 458T393 417T434 349T449 251Q449 242 449 232T447 213H128Q130 172 142 143T175 95T220 67T275 58Q298 58 318
63T357 79T390 106L436 62Q416 38 391 22T336 -2T272 -10ZM131 278H364Q364 308 356 331T334 371T300 396T254 405Q231 405 211 398T175 374T147 335T131 278ZM148 763L104 801L245 941H273L414 801L370 763L259 870L148 763Z" />
<glyph unicode="&#xeb;" horiz-adv-x="500" d="M272 -10Q222 -10 181 5T109 51T62 126T46 228Q46 286 62 331T108 407T176 454T259 471Q298 471 333 458T393 417T434 349T449 251Q449 242 449 232T447 213H128Q130 172 142 143T175 95T220 67T275 58Q298 58 318
63T357 79T390 106L436 62Q416 38 391 22T336 -2T272 -10ZM131 278H364Q364 308 356 331T334 371T300 396T254 405Q231 405 211 398T175 374T147 335T131 278ZM171 559Q148 559 131 575T114 613Q114 635 131 652T171 669Q194 669 210 653T227 613Q227 591 210 575T171
559ZM351 559Q328 559 312 574T295 613Q295 636 311 652T351 669Q374 669 390 652T406 613Q406 591 390 575T351 559Z" />
<glyph unicode="&#xec;" horiz-adv-x="500" d="M95 0V68H211V391H101V460H297V68H403V0H95ZM499 506L395 643L458 689L542 534L499 506Z" />
<glyph unicode="&#xed;" horiz-adv-x="500" d="M95 0V68H211V391H101V460H297V68H403V0H95ZM503 518L460 546L544 701L607 655L503 518Z" />
<glyph unicode="&#xee;" horiz-adv-x="500" d="M95 0V68H211V391H101V460H297V68H403V0H95ZM139 763L95 801L236 941H264L405 801L361 763L250 870L139 763Z" />
<glyph unicode="&#xef;" horiz-adv-x="500" d="M95 0V68H211V391H101V460H297V68H403V0H95ZM410 559Q387 559 370 575T353 613Q353 635 370 652T410 669Q433 669 449 653T466 613Q466 591 449 575T410 559ZM590 559Q567 559 551 574T534 613Q534 636 550 652T590
669Q613 669 629 652T645 613Q645 591 629 575T590 559Z" />
<glyph unicode="&#xf0;" horiz-adv-x="500" d="M256 -13Q211 -13 172 4T102 53T55 127T38 222Q38 273 54 317T99 396T163 449T238 468Q263 468 284 463T323 448T356 421Q342 455 322 487T276 546L154 511L133 568L228 593Q213 605 198 616T166 637T130 654L222
674Q245 661 265 648T306 615L416 645L436 592L355 568Q381 537 401 502T435 427T456 343T463 253Q463 193 450 144T410 60T346 6T256 -13ZM256 59Q280 59 301 69T340 100T367 154T377 231Q377 267 370 294T350 341T322 372T289 390T254 396Q231 396 209 386T168
355T139 303T128 231Q128 192 138 161T166 107T207 72T256 59Z" />
<glyph unicode="&#xf1;" horiz-adv-x="500" d="M66 0V460H151V384Q168 410 191 429T241 460T299 471Q338 471 369 452T419 390T438 278V0H354V276Q354 321 344 348T316 387T275 400Q254 400 232 391T192 364T162 323T151 268V0H66ZM384 674L434 645Q413 603 392
586T340 568Q315 568 297 576T265 596T238 616T208 625Q191 625 178 614T153 577L99 602Q114 639 140 661T205 684Q228 684 245 676T276 656T304 637T335 628Q351 628 361 638T384 674Z" />
<glyph unicode="&#xf2;" horiz-adv-x="500" d="M250 -9Q188 -9 140 21T63 106T35 230Q35 300 63 354T139 439T250 470Q312 470 360 439T437 354T465 230Q465 160 437 106T361 22T250 -9ZM250 61Q287 61 315 83T359 143T376 231Q376 281 360 319T315 378T250 400Q214
400 186 379T141 319T124 231Q124 181 140 143T184 83T250 61ZM500 506L396 643L459 689L543 534L500 506Z" />
<glyph unicode="&#xf3;" horiz-adv-x="500" d="M250 -9Q188 -9 140 21T63 106T35 230Q35 300 63 354T139 439T250 470Q312 470 360 439T437 354T465 230Q465 160 437 106T361 22T250 -9ZM250 61Q287 61 315 83T359 143T376 231Q376 281 360 319T315 378T250 400Q214
400 186 379T141 319T124 231Q124 181 140 143T184 83T250 61ZM496 762L453 790L537 945L600 899L496 762Z" />
<glyph unicode="&#xf4;" horiz-adv-x="500" d="M250 -9Q188 -9 140 21T63 106T35 230Q35 300 63 354T139 439T250 470Q312 470 360 439T437 354T465 230Q465 160 437 106T361 22T250 -9ZM250 61Q287 61 315 83T359 143T376 231Q376 281 360 319T315 378T250 400Q214
400 186 379T141 319T124 231Q124 181 140 143T184 83T250 61ZM139 763L95 801L236 941H264L405 801L361 763L250 870L139 763Z" />
<glyph unicode="&#xf5;" horiz-adv-x="500" d="M250 -9Q188 -9 140 21T63 106T35 230Q35 300 63 354T139 439T250 470Q312 470 360 439T437 354T465 230Q465 160 437 106T361 22T250 -9ZM250 61Q287 61 315 83T359 143T376 231Q376 281 360 319T315 378T250 400Q214
400 186 379T141 319T124 231Q124 181 140 143T184 83T250 61ZM626 674L676 645Q655 603 634 586T582 568Q557 568 539 576T507 596T480 616T450 625Q433 625 420 614T395 577L341 602Q356 639 382 661T447 684Q470 684 487 676T518 656T546 637T577 628Q593 628
603 638T626 674Z" />
<glyph unicode="&#xf6;" horiz-adv-x="500" d="M250 -9Q188 -9 140 21T63 106T35 230Q35 300 63 354T139 439T250 470Q312 470 360 439T437 354T465 230Q465 160 437 106T361 22T250 -9ZM250 61Q287 61 315 83T359 143T376 231Q376 281 360 319T315 378T250 400Q214
400 186 379T141 319T124 231Q124 181 140 143T184 83T250 61ZM417 559Q394 559 377 575T360 613Q360 635 377 652T417 669Q440 669 456 653T473 613Q473 591 456 575T417 559ZM597 559Q574 559 558 574T541 613Q541 636 557 652T597 669Q620 669 636 652T652 613Q652
591 636 575T597 559Z" />
<glyph unicode="&#xf7;" horiz-adv-x="500" d="M68 275V353H434V275H68ZM255 428Q235 428 221 442T207 476Q207 497 221 511T255 526Q276 526 290 511T304 476Q304 456 290 442T255 428ZM256 100Q236 100 221 114T206 148Q206 169 221 183T256 198Q275 198 289
183T304 148Q304 128 290 114T256 100Z" />
<glyph unicode="&#xf8;" horiz-adv-x="500" d="M127 -65L66 -32L366 520L430 487L127 -65ZM250 -9Q188 -9 140 21T63 106T35 230Q35 300 63 354T139 439T250 470Q312 470 360 439T437 354T465 230Q465 160 437 106T361 22T250 -9ZM250 61Q287 61 315 83T359 143T376
231Q376 281 360 319T315 378T250 400Q214 400 186 379T141 319T124 231Q124 181 140 143T184 83T250 61Z" />
<glyph unicode="&#xf9;" horiz-adv-x="500" d="M218 -11Q191 -11 167 -4T123 20T89 61T67 120T59 199L60 460H144V199Q144 160 151 133T171 89T201 65T238 58Q261 58 281 66T317 93T342 138T351 203V460H436V72Q436 53 437 36T446 0H365Q360 11 358 22T356 44T355
67Q344 48 330 34T297 9T260 -6T218 -11ZM499 506L395 643L458 689L542 534L499 506Z" />
<glyph unicode="&#xfa;" horiz-adv-x="500" d="M218 -11Q191 -11 167 -4T123 20T89 61T67 120T59 199L60 460H144V199Q144 160 151 133T171 89T201 65T238 58Q261 58 281 66T317 93T342 138T351 203V460H436V72Q436 53 437 36T446 0H365Q360 11 358 22T356 44T355
67Q344 48 330 34T297 9T260 -6T218 -11ZM496 762L453 790L537 945L600 899L496 762Z" />
<glyph unicode="&#xfb;" horiz-adv-x="500" d="M218 -11Q191 -11 167 -4T123 20T89 61T67 120T59 199L60 460H144V199Q144 160 151 133T171 89T201 65T238 58Q261 58 281 66T317 93T342 138T351 203V460H436V72Q436 53 437 36T446 0H365Q360 11 358 22T356 44T355
67Q344 48 330 34T297 9T260 -6T218 -11ZM139 763L95 801L236 941H264L405 801L361 763L250 870L139 763Z" />
<glyph unicode="&#xfc;" horiz-adv-x="500" d="M218 -11Q191 -11 167 -4T123 20T89 61T67 120T59 199L60 460H144V199Q144 160 151 133T171 89T201 65T238 58Q261 58 281 66T317 93T342 138T351 203V460H436V72Q436 53 437 36T446 0H365Q360 11 358 22T356 44T355
67Q344 48 330 34T297 9T260 -6T218 -11ZM417 559Q394 559 377 575T360 613Q360 635 377 652T417 669Q440 669 456 653T473 613Q473 591 456 575T417 559ZM597 559Q574 559 558 574T541 613Q541 636 557 652T597 669Q620 669 636 652T652 613Q652 591 636 575T597
559Z" />
<glyph unicode="&#xfd;" horiz-adv-x="500" d="M127 -175Q94 -175 68 -165T20 -134L53 -76L59 -67L66 -71Q68 -79 73 -85T91 -100Q100 -103 109 -104T129 -106Q154 -106 171 -94T201 -56T228 9L320 283Q335 328 347 371T364 460H447Q441 414 426 366T393 272L279
-48Q253 -118 215 -146T127 -175V-175ZM41 460H129L273 87L232 -12L41 460ZM501 762L458 790L542 945L605 899L501 762Z" />
<glyph unicode="&#xfe;" horiz-adv-x="500" d="M56 667H141H151V659Q145 653 144 646T142 622V378Q154 410 174 430T221 460T278 470Q316 470 350 455T410 411T451 337T467 232Q467 171 451 125T408 49T346 4T276 -12Q250 -12 225 -5T180 18T144 53V-167H56V667ZM258
60Q281 60 302 68T341 96T369 149T379 232Q379 284 366 320T328 377T267 399Q240 401 218 391T178 359T152 302T143 217Q144 185 149 160T164 116T187 85T219 67T258 60V60Z" />
<glyph unicode="&#xff;" horiz-adv-x="500" d="M127 -175Q94 -175 68 -165T20 -134L53 -76L59 -67L66 -71Q68 -79 73 -85T91 -100Q100 -103 109 -104T129 -106Q154 -106 171 -94T201 -56T228 9L320 283Q335 328 347 371T364 460H447Q441 414 426 366T393 272L279
-48Q253 -118 215 -146T127 -175V-175ZM41 460H129L273 87L232 -12L41 460ZM165 559Q142 559 125 575T108 613Q108 635 125 652T165 669Q188 669 204 653T221 613Q221 591 204 575T165 559ZM345 559Q322 559 306 574T289 613Q289 636 305 652T345 669Q368 669 384
652T400 613Q400 591 384 575T345 559Z" />
<glyph unicode="&#x2013;" horiz-adv-x="500" d="M69 278V354H434V278H69Z" />
<glyph unicode="&#x2014;" horiz-adv-x="500" d="M10 278V354H490V278H10Z" />
<glyph unicode="&#x2018;" horiz-adv-x="500" d="M285 641L326 604Q308 587 294 568T271 532T262 501Q262 490 269 481T287 464T304 446T311 421Q311 394 294 376T247 358Q219 358 197 382T174 444Q174 472 186 503T223 569T285 641Z" />
<glyph unicode="&#x2019;" horiz-adv-x="500" d="M201 358L159 395Q178 413 192 431T215 467T224 499Q224 510 217 518T199 535T182 554T174 579Q174 605 192 623T239 641Q266 641 288 618T311 555Q311 528 299 497T263 431T201 358Z" />
<glyph unicode="&#x201a;" horiz-adv-x="500" d="M201 -174L159 -137Q178 -119 192 -101T215 -65T224 -33Q224 -22 217 -14T199 3T182 22T174 47Q174 73 192 91T239 109Q266 109 288 86T311 23Q311 -4 299 -35T263 -101T201 -174Z" />
<glyph unicode="&#x201c;" horiz-adv-x="500" d="M185 641L226 604Q208 587 194 568T171 532T162 501Q162 490 169 481T187 464T204 446T211 421Q211 394 194 376T147 358Q119 358 97 382T74 444Q74 472 86 503T124 569T185 641ZM390 641L431 604Q413 587 399
568T376 532T367 501Q367 490 374 481T392 464T409 446T416 421Q416 394 399 376T352 358Q324 358 302 382T279 444Q279 472 291 503T329 569T390 641Z" />
<glyph unicode="&#x201d;" horiz-adv-x="500" d="M323 358L282 395Q301 413 315 431T337 467T346 498Q346 510 339 518T321 535T304 553T297 578Q297 605 314 623T361 641Q389 641 411 617T434 555Q434 528 422 496T385 430T323 358ZM118 358L77 395Q96 413 110
431T132 467T141 498Q141 510 134 518T116 535T99 553T92 578Q92 605 109 623T156 641Q184 641 206 617T229 555Q229 528 217 496T180 430T118 358Z" />
<glyph unicode="&#x201e;" horiz-adv-x="500" d="M96 -174L54 -137Q73 -119 87 -101T110 -64T119 -33Q119 -21 112 -13T94 4T77 22T69 47Q69 73 87 91T134 110Q161 110 183 86T206 24Q206 -4 194 -35T158 -101T96 -174ZM306 -174L264 -137Q283 -119 297 -101T320
-64T329 -33Q329 -21 322 -13T304 4T287 22T279 47Q279 73 297 91T344 110Q371 110 393 86T416 24Q416 -4 404 -35T368 -101T306 -174Z" />
<glyph unicode="&#x2022;" horiz-adv-x="500" d="M250 205Q225 205 204 217T170 251T157 296Q157 322 170 343T204 376T250 388Q275 388 296 376T331 342T344 296Q344 272 331 251T297 218T250 205Z" />
<glyph unicode="&#x2039;" horiz-adv-x="500" d="M298 55L137 228V254L293 405L341 355L223 240L348 104L298 55Z" />
<glyph unicode="&#x203a;" horiz-adv-x="500" d="M188 55L138 104L263 240L145 355L193 405L349 254V228L188 55Z" />
</font>
</defs>
</svg>
